<svg width="39" height="39" viewBox="0 0 39 39" fill="none" xmlns="http://www.w3.org/2000/svg">
<rect x="0.251953" y="0.12915" width="38.0763" height="38.0763" stroke="#BAFF2A"/>
<path d="M3.42419 35.0338C3.42419 32.7888 3.42419 31.6672 4.12226 30.9723C4.81874 30.2742 5.9404 30.2742 8.18373 30.2742C10.4286 30.2742 11.5503 30.2742 12.2452 30.9723C12.9433 31.6688 12.9433 32.7904 12.9433 35.0338V20.7551C12.9433 18.5102 12.9433 17.3886 13.6413 16.6937C14.3378 15.9956 15.4595 15.9956 17.7028 15.9956H20.8758C23.1207 15.9956 24.2424 15.9956 24.9373 16.6937C25.6354 17.3901 25.6354 18.5118 25.6354 20.7551V35.0338V30.2742C25.6354 28.0293 25.6354 26.9076 26.3334 26.2127C27.0299 25.5147 28.1516 25.5147 30.3949 25.5147C32.6398 25.5147 33.7615 25.5147 34.4564 26.2127C35.1544 26.9092 35.1544 28.0309 35.1544 30.2742V35.0338" stroke="#BAFF2A" stroke-width="1.63184" stroke-linecap="round"/>
<path d="M17.9342 4.92452C18.537 3.84093 18.8385 3.30151 19.289 3.30151C19.7396 3.30151 20.041 3.84093 20.6439 4.92452L20.7994 5.20374C20.9707 5.51153 21.0564 5.66383 21.1897 5.76537C21.3245 5.8669 21.4911 5.90498 21.8243 5.97955L22.1257 6.04935C23.2966 6.3143 23.882 6.44598 24.0216 6.89338C24.1612 7.34236 23.7614 7.8088 22.9634 8.74166L22.7572 8.98281C22.5303 9.24776 22.4161 9.37944 22.3653 9.54444C22.3145 9.70944 22.332 9.88554 22.3653 10.2393L22.397 10.5614C22.5176 11.8068 22.5779 12.4303 22.2146 12.7064C21.8497 12.984 21.3007 12.7302 20.2045 12.2256L19.9221 12.0956C19.6095 11.9528 19.454 11.8798 19.289 11.8798C19.124 11.8798 18.9686 11.9528 18.656 12.0956L18.3736 12.2256C17.2773 12.7302 16.7284 12.984 16.3635 12.7064C15.9986 12.4303 16.0605 11.8068 16.1811 10.5614L16.2128 10.2393C16.2461 9.88554 16.2636 9.70944 16.2128 9.54444C16.162 9.38103 16.0478 9.24776 15.8209 8.98281L15.6147 8.74166C14.8167 7.8088 14.4169 7.34236 14.5565 6.89338C14.6961 6.44598 15.2815 6.3143 16.4524 6.04935L16.7538 5.97955C17.087 5.90498 17.2535 5.86849 17.3884 5.76537C17.5217 5.66383 17.6073 5.51153 17.7787 5.20374L17.9342 4.92452Z" stroke="#BAFF2A" stroke-width="1.63184"/>
</svg>
