<svg width="24" height="23" viewBox="0 0 24 23" fill="none" xmlns="http://www.w3.org/2000/svg">
<path d="M12.9309 3.17285C13.1677 3.17311 13.3955 3.26381 13.5677 3.42639C13.74 3.58898 13.8436 3.8112 13.8575 4.04764C13.8714 4.28407 13.7944 4.51689 13.6424 4.69851C13.4904 4.88014 13.2748 4.99686 13.0396 5.02483L12.9309 5.03134H5.49691V18.0407H18.5063V10.6068C18.5066 10.37 18.5973 10.1421 18.7599 9.96992C18.9225 9.7977 19.1447 9.69406 19.3811 9.68018C19.6175 9.6663 19.8504 9.74323 20.032 9.89524C20.2136 10.0473 20.3303 10.2629 20.3583 10.4981L20.3648 10.6068V18.0407C20.365 18.5096 20.1879 18.9612 19.8691 19.305C19.5502 19.6488 19.1133 19.8594 18.6457 19.8946L18.5063 19.8992H5.49691C5.02804 19.8994 4.57644 19.7223 4.23263 19.4035C3.88883 19.0847 3.67824 18.6477 3.64307 18.1801L3.63843 18.0407V5.03134C3.63828 4.56246 3.81536 4.11086 4.13418 3.76706C4.45299 3.42326 4.88997 3.21266 5.35753 3.1775L5.49691 3.17285H12.9309ZM18.7321 3.49158C18.8994 3.32492 19.1237 3.22817 19.3597 3.22096C19.5957 3.21375 19.8256 3.29664 20.0027 3.45278C20.1797 3.60893 20.2908 3.82662 20.3131 4.06165C20.3355 4.29668 20.2676 4.53141 20.1232 4.71818L20.0461 4.80646L10.8466 14.005C10.6793 14.1717 10.455 14.2685 10.219 14.2757C9.98299 14.2829 9.75312 14.2 9.57603 14.0438C9.39895 13.8877 9.28794 13.67 9.26555 13.435C9.24317 13.1999 9.31108 12.9652 9.45549 12.7784L9.53262 12.6911L18.7321 3.49158Z" fill="#000041"/>
</svg>
