<svg width="19" height="20" viewBox="0 0 19 20" fill="none" xmlns="http://www.w3.org/2000/svg">
<path d="M17.3153 1.27385L17.81 1.76862C18.4918 2.45123 18.3887 3.66131 17.5777 4.47138L7.37467 14.6744L4.06897 15.8837C3.65387 16.0363 3.24967 15.8384 3.16749 15.4434C3.13972 15.3001 3.15279 15.1519 3.20523 15.0157L4.43795 11.6815L14.6125 1.50614C15.4234 0.696068 16.6335 0.591245 17.3153 1.27385ZM6.92938 2.28854C7.03951 2.28854 7.14855 2.31023 7.2503 2.35237C7.35204 2.39452 7.44448 2.45629 7.52235 2.53416C7.60022 2.61203 7.66199 2.70447 7.70414 2.80621C7.74628 2.90796 7.76797 3.017 7.76797 3.12713C7.76797 3.23725 7.74628 3.3463 7.70414 3.44804C7.66199 3.54978 7.60022 3.64223 7.52235 3.7201C7.44448 3.79797 7.35204 3.85974 7.2503 3.90188C7.14855 3.94402 7.03951 3.96571 6.92938 3.96571H3.57504C3.13023 3.96571 2.70364 4.14241 2.38911 4.45694C2.07457 4.77147 1.89787 5.19807 1.89787 5.64288V15.7059C1.89787 16.1507 2.07457 16.5773 2.38911 16.8918C2.70364 17.2064 3.13023 17.3831 3.57504 17.3831H13.6381C14.0829 17.3831 14.5095 17.2064 14.824 16.8918C15.1385 16.5773 15.3152 16.1507 15.3152 15.7059V12.3516C15.3152 12.1292 15.4036 11.9159 15.5609 11.7586C15.7181 11.6013 15.9314 11.513 16.1538 11.513C16.3762 11.513 16.5895 11.6013 16.7468 11.7586C16.9041 11.9159 16.9924 12.1292 16.9924 12.3516V15.7059C16.9924 16.5955 16.639 17.4487 16.0099 18.0778C15.3809 18.7068 14.5277 19.0602 13.6381 19.0602H3.57504C2.68542 19.0602 1.83223 18.7068 1.20317 18.0778C0.574106 17.4487 0.220703 16.5955 0.220703 15.7059V5.64288C0.220703 4.75326 0.574106 3.90007 1.20317 3.27101C1.83223 2.64194 2.68542 2.28854 3.57504 2.28854H6.92938Z" fill="#CACACA"/>
</svg>
