<svg width="19" height="19" viewBox="0 0 19 19" fill="none" xmlns="http://www.w3.org/2000/svg">
<path d="M17.8357 -0.000671387H1.46527C1.19696 -0.000671387 0.939642 0.104394 0.74992 0.291413C0.560198 0.478431 0.453613 0.732082 0.453613 0.996565V17.1337C0.453613 17.3981 0.560198 17.6518 0.74992 17.8388C0.939642 18.0258 1.19696 18.1309 1.46527 18.1309H10.2759V11.1049H7.88467V8.38518H10.2759V6.34538C10.2263 5.86649 10.2837 5.38271 10.4439 4.92798C10.6041 4.47325 10.8633 4.05858 11.2033 3.71305C11.5433 3.36752 11.9559 3.0995 12.4121 2.92779C12.8683 2.75608 13.3571 2.68484 13.8442 2.71906C14.5601 2.71472 15.2755 2.75105 15.9871 2.82785V5.27562H14.5248C13.366 5.27562 13.1453 5.81956 13.1453 6.60829V8.35798H15.9043L15.5457 11.0777H13.1453V18.1309H17.8357C17.9685 18.1309 18.1001 18.1051 18.2228 18.055C18.3456 18.0049 18.4571 17.9314 18.551 17.8388C18.645 17.7462 18.7195 17.6363 18.7703 17.5153C18.8212 17.3943 18.8473 17.2646 18.8473 17.1337V0.996565C18.8473 0.865606 18.8212 0.73593 18.7703 0.614939C18.7195 0.493949 18.645 0.384015 18.551 0.291413C18.4571 0.198811 18.3456 0.125355 18.2228 0.0752388C18.1001 0.025123 17.9685 -0.000671387 17.8357 -0.000671387Z" fill="#1A1241"/>
</svg>
