<svg width="19" height="20" viewBox="0 0 19 20" fill="none" xmlns="http://www.w3.org/2000/svg">
<g clip-path="url(#clip0_8_121)">
<path d="M6.65496 1.0885C4.40242 1.86006 2.48112 3.54801 1.41445 5.67629C1.04168 6.41172 0.772211 7.19339 0.611832 8.00143C0.202937 10.0105 0.487574 12.1493 1.41445 13.9821C2.01515 15.178 2.8799 16.2397 3.92598 17.0683C4.91499 17.8554 6.06437 18.4355 7.28672 18.7617C8.82478 19.176 10.4661 19.1655 12.0194 18.8133C13.4227 18.4922 14.7483 17.8193 15.8045 16.8458C16.9229 15.8152 17.7204 14.4639 18.1452 13.009C18.6061 11.4192 18.6682 9.72587 18.3782 8.10004C15.4784 8.10004 12.5785 8.10004 9.67363 8.10004C9.67363 9.30144 9.67363 10.5079 9.67363 11.7093C11.3515 11.7093 13.0344 11.7093 14.7119 11.7093C14.515 12.8641 13.8316 13.9152 12.8581 14.5676C12.2469 14.9765 11.548 15.246 10.823 15.3702C10.093 15.4945 9.34204 15.51 8.61708 15.3652C7.87659 15.2203 7.17222 14.9093 6.55635 14.4744C5.5724 13.7856 4.82179 12.7709 4.43854 11.6367C4.04518 10.4819 4.03976 9.19272 4.43854 8.03791C4.71307 7.22482 5.17398 6.4688 5.77973 5.85798C6.52528 5.09148 7.4937 4.54786 8.53978 4.32535C9.43559 4.1339 10.378 4.17002 11.2532 4.43407C11.9988 4.662 12.6826 5.06584 13.2468 5.60441C13.8164 5.03983 14.3806 4.47056 14.9503 3.90598C15.2454 3.60039 15.5614 3.31033 15.8511 2.99463C14.9914 2.19707 13.9768 1.55519 12.8736 1.15135C10.8956 0.410139 8.65356 0.394607 6.65496 1.0885Z" fill="#1E1E1E"/>
<path d="M6.6555 1.08767C8.6541 0.393778 10.8965 0.40931 12.8847 1.14474C13.9874 1.54858 14.9974 2.19082 15.8621 2.98802C15.5721 3.29867 15.2614 3.59378 14.9613 3.89937C14.3916 4.46395 13.8274 5.03322 13.2578 5.5978C12.6932 5.05923 12.0098 4.65033 11.2642 4.42747C10.389 4.16342 9.44661 4.1273 8.55079 4.31874C7.50471 4.54125 6.53666 5.09029 5.79075 5.85138C5.18499 6.46255 4.72408 7.21857 4.44956 8.03131C3.43996 7.24928 2.43001 6.46219 1.42041 5.68052C2.48166 3.54718 4.40296 1.85923 6.6555 1.08767Z" fill="#1C1445"/>
<path d="M0.611832 8.00063C0.772211 7.19296 1.04673 6.41092 1.41445 5.67549C2.42405 6.45752 3.434 7.24461 4.4436 8.02628C4.04482 9.18108 4.05024 10.4703 4.4436 11.6251C3.434 12.4071 2.42405 13.1942 1.41445 13.9758C0.487574 12.1535 0.202937 10.0097 0.611832 8.00063Z" fill="#1C1445"/>
<path d="M9.67901 8.09378C12.5788 8.09378 15.4787 8.09378 18.3836 8.09378C18.6736 9.71961 18.6115 11.413 18.1506 13.0027C17.7262 14.4577 16.9286 15.8144 15.8099 16.8395C14.8314 16.0784 13.8474 15.317 12.874 14.5559C13.8474 13.9086 14.5308 12.8524 14.7277 11.6976C13.0499 11.6976 11.367 11.6976 9.68948 11.6976C9.67395 10.5016 9.67901 9.30024 9.67901 8.09378Z" fill="#1C1445"/>
<path d="M1.41528 13.9813C2.42488 13.1992 3.43484 12.4121 4.44443 11.6305C4.82768 12.7697 5.57828 13.7793 6.56223 14.4682C7.17847 14.9031 7.88247 15.2087 8.62297 15.3589C9.34792 15.5038 10.1039 15.4883 10.8289 15.364C11.5539 15.2397 12.2528 14.9706 12.864 14.5614C13.8425 15.3225 14.8265 16.0839 15.7999 16.845C14.7438 17.8235 13.4181 18.4918 12.0148 18.8125C10.4666 19.1647 8.82488 19.1748 7.28214 18.7609C6.06015 18.4347 4.9104 17.8546 3.92139 17.0675C2.88073 16.2338 2.01598 15.1722 1.41528 13.9813Z" fill="#1C1445"/>
</g>
<defs>
<clipPath id="clip0_8_121">
<rect width="18.4942" height="18.4942" fill="white" transform="translate(0.246338 0.580925)"/>
</clipPath>
</defs>
</svg>
