<svg width="80" height="80" viewBox="0 0 80 80" fill="none" xmlns="http://www.w3.org/2000/svg">
<rect x="0.891724" y="39.6451" width="55.7756" height="55.7756" rx="10.8833" transform="rotate(-45 0.891724 39.6451)" fill="#BAFF2A"/>
<path d="M43.4723 27.7152C43.1047 27.3356 42.6644 27.0337 42.1778 26.8275C41.6911 26.6213 41.168 26.515 40.6395 26.515C40.111 26.515 39.5878 26.6213 39.1012 26.8275C38.6146 27.0337 38.1743 27.3356 37.8067 27.7152L30.2373 35.5323C29.8035 35.9803 29.5117 36.5481 29.3981 37.1632C28.479 42.176 28.4113 47.3078 29.1978 52.3431L29.4754 54.1254C29.5638 54.6885 30.0496 55.1033 30.619 55.1033H35.9076C36.1168 55.1033 36.3174 55.0202 36.4653 54.8723C36.6132 54.7244 36.6963 54.5238 36.6963 54.3147V43.2736H44.5827V54.3147C44.5827 54.5238 44.6658 54.7244 44.8137 54.8723C44.9616 55.0202 45.1622 55.1033 45.3714 55.1033H50.66C50.9357 55.1032 51.2023 55.0046 51.4117 54.8253C51.6211 54.646 51.7595 54.3978 51.802 54.1254L52.0812 52.3431C52.8676 47.3078 52.7999 42.176 51.8808 37.1632C51.7678 36.5485 51.4752 35.981 51.0401 35.5323L43.4723 27.7152Z" fill="#000041"/>
</svg>
