<svg width="51" height="50" viewBox="0 0 51 50" fill="none" xmlns="http://www.w3.org/2000/svg">
<rect x="0.791992" y="24.891" width="34.9968" height="34.9968" rx="6.82881" transform="rotate(-45 0.791992 24.891)" fill="#000317"/>
<path d="M27.6119 17.2595C27.3812 17.0213 27.105 16.8319 26.7997 16.7025C26.4943 16.5731 26.1661 16.5065 25.8345 16.5065C25.5028 16.5065 25.1746 16.5731 24.8692 16.7025C24.5639 16.8319 24.2877 17.0213 24.057 17.2595L19.3075 22.1644C19.0353 22.4455 18.8522 22.8018 18.781 23.1877C18.2043 26.333 18.1618 29.553 18.6553 32.7125L18.8295 33.8308C18.8849 34.1841 19.1897 34.4444 19.547 34.4444H22.8654C22.9966 34.4444 23.1225 34.3923 23.2153 34.2995C23.3081 34.2067 23.3602 34.0808 23.3602 33.9496V27.0218H28.3087V33.9496C28.3087 34.0808 28.3608 34.2067 28.4536 34.2995C28.5464 34.3923 28.6723 34.4444 28.8035 34.4444H32.1219C32.2949 34.4443 32.4621 34.3825 32.5935 34.27C32.7249 34.1575 32.8118 34.0017 32.8384 33.8308L33.0136 32.7125C33.5071 29.553 33.4646 26.333 32.8879 23.1877C32.817 22.802 32.6334 22.446 32.3604 22.1644L27.6119 17.2595Z" fill="#7A7999"/>
</svg>
