<svg width="19" height="20" viewBox="0 0 19 20" fill="none" xmlns="http://www.w3.org/2000/svg">
<path d="M17.4353 7.0827V7.13811C17.4353 7.79096 17.4353 8.11815 17.2781 8.38536C17.121 8.65258 16.8348 8.81123 16.2639 9.12931L15.6619 9.46333C16.0764 8.06045 16.2154 6.55282 16.2662 5.26382L16.2738 5.09605L16.2753 5.05658C16.7695 5.22814 17.0474 5.35644 17.2204 5.59632C17.4353 5.89466 17.4353 6.29092 17.4353 7.0827ZM2.25269 7.0827V7.13811C2.25269 7.79096 2.25269 8.11815 2.40983 8.38536C2.56697 8.65258 2.85316 8.81123 3.42402 9.12931L4.02677 9.46333C3.61153 8.06045 3.47261 6.55282 3.42174 5.26382L3.41415 5.09605L3.41339 5.05658C2.91844 5.22814 2.6406 5.35644 2.46752 5.59632C2.25269 5.89466 2.25269 6.29168 2.25269 7.0827Z" fill="#000041"/>
<path fill-rule="evenodd" clip-rule="evenodd" d="M9.84403 2.40466C11.1983 2.40466 12.3135 2.52384 13.1667 2.66808C14.0314 2.81383 14.4633 2.88671 14.8247 3.33156C15.186 3.77641 15.1663 4.25693 15.1283 5.21799C14.9978 8.51945 14.2857 12.6423 10.4134 13.0067V15.6894H11.4989C11.6744 15.6895 11.8443 15.7504 11.98 15.8617C12.1156 15.9729 12.2085 16.1277 12.2429 16.2998L12.3871 17.0179H14.3988C14.5498 17.0179 14.6946 17.0779 14.8014 17.1847C14.9082 17.2914 14.9682 17.4362 14.9682 17.5872C14.9682 17.7382 14.9082 17.8831 14.8014 17.9898C14.6946 18.0966 14.5498 18.1566 14.3988 18.1566H5.28926C5.13826 18.1566 4.99344 18.0966 4.88667 17.9898C4.77989 17.8831 4.71991 17.7382 4.71991 17.5872C4.71991 17.4362 4.77989 17.2914 4.88667 17.1847C4.99344 17.0779 5.13826 17.0179 5.28926 17.0179H7.30095L7.44518 16.2998C7.47957 16.1277 7.57247 15.9729 7.7081 15.8617C7.84372 15.7504 8.0137 15.6895 8.18913 15.6894H9.27469V13.0067C5.40313 12.6423 4.69106 8.51869 4.56049 5.21799C4.52178 4.25693 4.5028 3.77565 4.86414 3.33156C5.22473 2.88671 5.65668 2.81383 6.52132 2.66808C7.61965 2.48807 8.73107 2.39996 9.84403 2.40466ZM10.5667 5.59224L10.4923 5.45864C10.2039 4.94015 10.0596 4.68205 9.84403 4.68205C9.62844 4.68205 9.48421 4.94015 9.19574 5.45864L9.12134 5.59224C9.03936 5.73951 8.99836 5.81239 8.9346 5.86097C8.87007 5.90956 8.79036 5.92778 8.63094 5.96346L8.48671 5.99686C7.92647 6.12363 7.64635 6.18664 7.57955 6.40072C7.51275 6.61555 7.70405 6.83873 8.08589 7.2851L8.18458 7.40049C8.29313 7.52726 8.34779 7.59027 8.37208 7.66922C8.39637 7.74817 8.38802 7.83243 8.37208 8.00172L8.3569 8.15582C8.2992 8.75174 8.27036 9.05008 8.4442 9.18217C8.6188 9.31425 8.88146 9.19355 9.40602 8.95215L9.54114 8.8899C9.69069 8.82158 9.76508 8.78742 9.84403 8.78742C9.92298 8.78742 9.99738 8.82158 10.1469 8.8899L10.2821 8.95215C10.8066 9.19431 11.0693 9.31425 11.2439 9.18217C11.4185 9.05008 11.3889 8.75174 11.3312 8.15582L11.316 8.00172C11.3 7.83243 11.2917 7.74817 11.316 7.66922C11.3403 7.59103 11.3949 7.52726 11.5035 7.40049L11.6022 7.2851C11.984 6.83873 12.1753 6.61555 12.1085 6.40072C12.0417 6.18664 11.7616 6.12363 11.2014 5.99686L11.0571 5.96346C10.8977 5.92778 10.818 5.91032 10.7535 5.86097C10.6897 5.81239 10.6487 5.73951 10.5667 5.59224Z" fill="#000041"/>
</svg>
