<svg width="34" height="35" viewBox="0 0 34 35" fill="none" xmlns="http://www.w3.org/2000/svg">
<path d="M16.8531 23.8029C7.71483 23.8029 6.09659 14.6963 5.81101 7.4713C5.7301 5.46277 5.69044 4.45692 6.44562 3.52881C7.19921 2.59912 8.10194 2.44681 9.90898 2.1422C12.2044 1.766 14.5271 1.58186 16.8531 1.59168C19.6835 1.59168 22.0141 1.84076 23.7973 2.1422C25.6043 2.44681 26.5071 2.59912 27.2623 3.52881C28.0174 4.45851 27.9762 5.46277 27.8969 7.4713C27.6113 14.6947 25.993 23.8029 16.8547 23.8029H16.8531Z" stroke="#BAFF2A" stroke-width="1.63184"/>
<path d="M16.8527 23.8021V28.5617" stroke="#BAFF2A" stroke-width="1.63184" stroke-linecap="round"/>
<path d="M22.4059 33.3213H11.3003L11.8397 30.6305C11.9116 30.271 12.1057 29.9475 12.3892 29.7149C12.6726 29.4824 13.0279 29.3552 13.3945 29.355H20.3117C20.6783 29.3552 21.0336 29.4824 21.317 29.7149C21.6004 29.9475 21.7946 30.271 21.8665 30.6305L22.4059 33.3213Z" stroke="#BAFF2A" stroke-width="1.63184" stroke-linecap="round" stroke-linejoin="round"/>
<path d="M27.9585 6.35095L29.4641 6.85229C31.0347 7.37584 31.8201 7.63761 32.2691 8.26111C32.718 8.88461 32.718 9.71277 32.718 11.3675V11.4833C32.718 12.8477 32.718 13.5315 32.3896 14.09C32.0612 14.6484 31.4631 14.98 30.2701 15.6447L25.5787 18.2498M5.74733 6.35095L4.24173 6.85229C2.67108 7.37584 1.88576 7.63761 1.43678 8.26111C0.987793 8.88461 0.987793 9.71436 0.987793 11.3675V11.4833C0.987793 12.8477 0.987793 13.5315 1.3162 14.09C1.64461 14.6484 2.24272 14.98 3.43578 15.6447L8.1271 18.2498M15.498 7.97395C16.1009 6.89037 16.4023 6.35095 16.8529 6.35095C17.3035 6.35095 17.6049 6.89037 18.2078 7.97395L18.3633 8.25318C18.5346 8.56096 18.6203 8.71327 18.7536 8.81481C18.8884 8.91634 19.055 8.95442 19.3882 9.02899L19.6896 9.09879C20.8604 9.36374 21.4459 9.49542 21.5855 9.94282C21.7251 10.3918 21.3253 10.8582 20.5273 11.7911L20.321 12.0323C20.0942 12.2972 19.9799 12.4289 19.9292 12.5939C19.8784 12.7589 19.8958 12.935 19.9292 13.2888L19.9609 13.6108C20.0815 14.8562 20.1418 15.4797 19.7784 15.7558C19.4135 16.0319 18.8646 15.7796 17.7683 15.2751L17.4859 15.145C17.1734 15.0022 17.0179 14.9308 16.8529 14.9308C16.6879 14.9308 16.5324 15.0022 16.2199 15.145L15.9375 15.2751C14.8412 15.7812 14.2923 16.0319 13.9274 15.7558C13.5625 15.4797 13.6244 14.8562 13.7449 13.6108L13.7767 13.2888C13.81 12.935 13.8274 12.7589 13.7767 12.5939C13.7259 12.4305 13.6117 12.2972 13.3848 12.0323L13.1786 11.7911C12.3805 10.8582 11.9807 10.3918 12.1204 9.94282C12.26 9.49542 12.8454 9.36374 14.0162 9.09879L14.3177 9.02899C14.6508 8.95442 14.8174 8.91793 14.9523 8.81481C15.0855 8.71327 15.1712 8.56096 15.3426 8.25318L15.498 7.97395Z" stroke="#BAFF2A" stroke-width="1.63184"/>
<path d="M26.372 33.3209H7.33386" stroke="#BAFF2A" stroke-width="1.63184" stroke-linecap="round"/>
</svg>
