<svg width="35" height="34" viewBox="0 0 35 34" fill="none" xmlns="http://www.w3.org/2000/svg">
<path d="M17.619 23.5573C8.4807 23.5573 6.86245 14.4507 6.57688 7.22572C6.49597 5.2172 6.45631 4.21135 7.21149 3.28324C7.96508 2.35354 8.86781 2.20124 10.6748 1.89663C12.9702 1.52043 15.293 1.33628 17.619 1.34611C20.4493 1.34611 22.7799 1.59519 24.5632 1.89663C26.3702 2.20124 27.2729 2.35354 28.0281 3.28324C28.7833 4.21293 28.7421 5.2172 28.6627 7.22572C28.3772 14.4491 26.7589 23.5573 17.6206 23.5573H17.619Z" stroke="#F4F2F2" stroke-width="1.63184"/>
<path d="M17.619 23.5577V28.3173" stroke="#F4F2F2" stroke-width="1.63184" stroke-linecap="round"/>
<path d="M23.1715 33.0763H12.0659L12.6053 30.3856C12.6772 30.0261 12.8714 29.7025 13.1548 29.47C13.4382 29.2375 13.7935 29.1103 14.1601 29.11H21.0773C21.4439 29.1103 21.7992 29.2375 22.0826 29.47C22.3661 29.7025 22.5602 30.0261 22.6321 30.3856L23.1715 33.0763Z" stroke="#F4F2F2" stroke-width="1.63184" stroke-linecap="round" stroke-linejoin="round"/>
<path d="M28.7242 6.10587L30.2298 6.6072C31.8005 7.13075 32.5858 7.39253 33.0348 8.01603C33.4838 8.63953 33.4838 9.46769 33.4838 11.1224V11.2382C33.4838 12.6026 33.4838 13.2864 33.1554 13.8449C32.827 14.4033 32.2289 14.7349 31.0358 15.3997L26.3445 18.0047M6.51308 6.10587L5.00748 6.6072C3.43683 7.13075 2.65151 7.39253 2.20252 8.01603C1.75354 8.63953 1.75354 9.46927 1.75354 11.1224V11.2382C1.75354 12.6026 1.75354 13.2864 2.08195 13.8449C2.41036 14.4033 3.00847 14.7349 4.20153 15.3997L8.89285 18.0047M16.2638 7.72887C16.8667 6.64528 17.1681 6.10587 17.6187 6.10587C18.0692 6.10587 18.3707 6.64528 18.9735 7.72887L19.129 8.00809C19.3004 8.31588 19.386 8.46818 19.5193 8.56972C19.6542 8.67126 19.8207 8.70933 20.1539 8.7839L20.4553 8.85371C21.6262 9.11865 22.2116 9.25033 22.3512 9.69773C22.4908 10.1467 22.091 10.6131 21.293 11.546L21.0868 11.7872C20.8599 12.0521 20.7457 12.1838 20.6949 12.3488C20.6441 12.5138 20.6616 12.6899 20.6949 13.0437L20.7266 13.3657C20.8472 14.6112 20.9075 15.2347 20.5442 15.5107C20.1793 15.7868 19.6304 15.5345 18.5341 15.03L18.2517 14.8999C17.9391 14.7571 17.7837 14.6857 17.6187 14.6857C17.4537 14.6857 17.2982 14.7571 16.9856 14.8999L16.7032 15.03C15.607 15.5361 15.058 15.7868 14.6931 15.5107C14.3282 15.2347 14.3901 14.6112 14.5107 13.3657L14.5424 13.0437C14.5757 12.6899 14.5932 12.5138 14.5424 12.3488C14.4916 12.1854 14.3774 12.0521 14.1505 11.7872L13.9443 11.546C13.1463 10.6131 12.7465 10.1467 12.8861 9.69773C13.0257 9.25033 13.6111 9.11865 14.782 8.85371L15.0834 8.7839C15.4166 8.70933 15.5832 8.67284 15.718 8.56972C15.8513 8.46818 15.937 8.31588 16.1083 8.00809L16.2638 7.72887Z" stroke="#F4F2F2" stroke-width="1.63184"/>
<path d="M27.1381 33.0757H8.09998" stroke="#F4F2F2" stroke-width="1.63184" stroke-linecap="round"/>
</svg>
