<svg width="21" height="22" viewBox="0 0 21 22" fill="none" xmlns="http://www.w3.org/2000/svg">
<path d="M10.4367 15.2098C10.8815 15.2098 11.3081 15.0331 11.6226 14.7186C11.9372 14.4041 12.1139 13.9775 12.1139 13.5327C12.1139 13.0879 11.9372 12.6613 11.6226 12.3467C11.3081 12.0322 10.8815 11.8555 10.4367 11.8555C9.9919 11.8555 9.5653 12.0322 9.25077 12.3467C8.93624 12.6613 8.75954 13.0879 8.75954 13.5327C8.75954 13.9775 8.93624 14.4041 9.25077 14.7186C9.5653 15.0331 9.9919 15.2098 10.4367 15.2098ZM15.4682 7.66258C15.913 7.66258 16.3396 7.83928 16.6542 8.15381C16.9687 8.46834 17.1454 8.89493 17.1454 9.33975V17.7256C17.1454 18.1704 16.9687 18.597 16.6542 18.9115C16.3396 19.2261 15.913 19.4028 15.4682 19.4028H5.4052C4.96038 19.4028 4.53379 19.2261 4.21926 18.9115C3.90473 18.597 3.72803 18.1704 3.72803 17.7256V9.33975C3.72803 8.89493 3.90473 8.46834 4.21926 8.15381C4.53379 7.83928 4.96038 7.66258 5.4052 7.66258H6.24378V5.98541C6.24378 4.87337 6.68554 3.80689 7.47186 3.02056C8.25819 2.23423 9.32468 1.79248 10.4367 1.79248C10.9873 1.79248 11.5326 1.90093 12.0413 2.11165C12.55 2.32236 13.0122 2.63121 13.4016 3.02056C13.7909 3.40991 14.0998 3.87213 14.3105 4.38084C14.5212 4.88955 14.6296 5.43478 14.6296 5.98541V7.66258H15.4682ZM10.4367 3.46965C9.76949 3.46965 9.1296 3.7347 8.6578 4.2065C8.18601 4.67829 7.92095 5.31819 7.92095 5.98541V7.66258H12.9525V5.98541C12.9525 5.31819 12.6874 4.67829 12.2156 4.2065C11.7438 3.7347 11.1039 3.46965 10.4367 3.46965Z" fill="#CACACA"/>
</svg>
