<svg width="25" height="25" viewBox="0 0 25 25" fill="none" xmlns="http://www.w3.org/2000/svg">
<path d="M19.3674 15.733L16.892 15.4504C16.601 15.4162 16.3059 15.4484 16.0291 15.5446C15.7523 15.6408 15.5009 15.7985 15.2937 16.0059L13.5005 17.7991C10.7339 16.392 8.48517 14.1433 7.0781 11.3767L8.88106 9.57371C9.30012 9.15464 9.50478 8.5699 9.43656 7.97541L9.15394 5.51949C9.09868 5.04407 8.87052 4.60557 8.5129 4.28748C8.15527 3.96939 7.69316 3.79393 7.21454 3.7945H5.52853C4.42726 3.7945 3.51117 4.71059 3.57939 5.81186C4.09591 14.1347 10.7522 20.7813 19.0653 21.2978C20.1666 21.366 21.0827 20.4499 21.0827 19.3487V17.6627C21.0924 16.6783 20.3518 15.85 19.3674 15.733Z" fill="#CACACA"/>
</svg>
