<svg width="32" height="32" viewBox="0 0 32 32" fill="none" xmlns="http://www.w3.org/2000/svg">
<path d="M15.7148 1.61426C7.6118 1.61426 1.04346 8.18834 1.04346 16.2984C1.04346 24.4084 7.6118 30.9825 15.7148 30.9825C23.8177 30.9825 30.3861 24.4084 30.3861 16.2984C30.3861 8.18834 23.8177 1.61426 15.7148 1.61426Z" stroke="#BAFF2A" stroke-width="1.63184" stroke-linecap="round" stroke-linejoin="round"/>
<path d="M4.30371 25.7247C4.30371 25.7247 7.57395 21.5456 15.6432 21.5456C23.7124 21.5456 26.9841 25.7247 26.9841 25.7247M15.6432 16.4062C16.8105 16.4062 17.93 15.942 18.7554 15.1159C19.5808 14.2898 20.0446 13.1693 20.0446 12.0009C20.0446 10.8326 19.5808 9.71211 18.7554 8.88597C17.93 8.05982 16.8105 7.5957 15.6432 7.5957C14.4758 7.5957 13.3563 8.05982 12.5309 8.88597C11.7055 9.71211 11.2418 10.8326 11.2418 12.0009C11.2418 13.1693 11.7055 14.2898 12.5309 15.1159C13.3563 15.942 14.4758 16.4062 15.6432 16.4062Z" stroke="#BAFF2A" stroke-width="1.63184" stroke-linecap="round" stroke-linejoin="round"/>
</svg>
