<svg width="32" height="32" viewBox="0 0 32 32" fill="none" xmlns="http://www.w3.org/2000/svg">
<path d="M15.8801 1.77234C7.76866 1.77234 1.19348 8.34752 1.19348 16.4589C1.19348 24.5703 7.76866 31.1455 15.8801 31.1455C23.9914 31.1455 30.5666 24.5703 30.5666 16.4589C30.5666 8.34752 23.9914 1.77234 15.8801 1.77234Z" stroke="#F4F2F2" stroke-width="1.63184" stroke-linecap="round" stroke-linejoin="round"/>
<path d="M4.52881 25.778C4.52881 25.778 7.80245 21.5982 15.8801 21.5982C23.9577 21.5982 27.2328 25.778 27.2328 25.778M15.8801 16.4579C17.0486 16.4579 18.1693 15.9937 18.9956 15.1675C19.8218 14.3412 20.286 13.2205 20.286 12.052C20.286 10.8834 19.8218 9.76276 18.9956 8.93648C18.1693 8.1102 17.0486 7.646 15.8801 7.646C14.7115 7.646 13.5908 8.1102 12.7646 8.93648C11.9383 9.76276 11.4741 10.8834 11.4741 12.052C11.4741 13.2205 11.9383 14.3412 12.7646 15.1675C13.5908 15.9937 14.7115 16.4579 15.8801 16.4579Z" stroke="#F4F2F2" stroke-width="1.63184" stroke-linecap="round" stroke-linejoin="round"/>
</svg>
