<svg width="34" height="34" viewBox="0 0 34 34" fill="none" xmlns="http://www.w3.org/2000/svg">
<path d="M1.42419 33.0338C1.42419 30.7888 1.42419 29.6672 2.12226 28.9723C2.81874 28.2742 3.9404 28.2742 6.18373 28.2742C8.42865 28.2742 9.55031 28.2742 10.2452 28.9723C10.9433 29.6688 10.9433 30.7904 10.9433 33.0338V18.7551C10.9433 16.5102 10.9433 15.3886 11.6413 14.6937C12.3378 13.9956 13.4595 13.9956 15.7028 13.9956H18.8758C21.1207 13.9956 22.2424 13.9956 22.9373 14.6937C23.6354 15.3901 23.6354 16.5118 23.6354 18.7551V33.0338V28.2742C23.6354 26.0293 23.6354 24.9076 24.3334 24.2127C25.0299 23.5147 26.1516 23.5147 28.3949 23.5147C30.6398 23.5147 31.7615 23.5147 32.4564 24.2127C33.1544 24.9092 33.1544 26.0309 33.1544 28.2742V33.0338" stroke="#BAFF2A" stroke-width="1.63184" stroke-linecap="round"/>
<path d="M15.9342 2.92452C16.537 1.84093 16.8385 1.30151 17.289 1.30151C17.7396 1.30151 18.041 1.84093 18.6439 2.92452L18.7994 3.20374C18.9707 3.51153 19.0564 3.66383 19.1897 3.76537C19.3245 3.8669 19.4911 3.90498 19.8243 3.97955L20.1257 4.04935C21.2966 4.3143 21.882 4.44598 22.0216 4.89338C22.1612 5.34236 21.7614 5.8088 20.9634 6.74166L20.7572 6.98281C20.5303 7.24776 20.4161 7.37944 20.3653 7.54444C20.3145 7.70944 20.332 7.88554 20.3653 8.23933L20.397 8.56139C20.5176 9.80681 20.5779 10.4303 20.2146 10.7064C19.8497 10.984 19.3007 10.7302 18.2045 10.2256L17.9221 10.0956C17.6095 9.95277 17.454 9.87979 17.289 9.87979C17.124 9.87979 16.9686 9.95277 16.656 10.0956L16.3736 10.2256C15.2773 10.7302 14.7284 10.984 14.3635 10.7064C13.9986 10.4303 14.0605 9.80681 14.1811 8.56139L14.2128 8.23933C14.2461 7.88554 14.2636 7.70944 14.2128 7.54444C14.162 7.38103 14.0478 7.24776 13.8209 6.98281L13.6147 6.74166C12.8167 5.8088 12.4169 5.34236 12.5565 4.89338C12.6961 4.44598 13.2815 4.3143 14.4524 4.04935L14.7538 3.97955C15.087 3.90498 15.2535 3.86849 15.3884 3.76537C15.5217 3.66383 15.6073 3.51153 15.7787 3.20374L15.9342 2.92452Z" stroke="#BAFF2A" stroke-width="1.63184"/>
</svg>
