<svg width="35" height="34" viewBox="0 0 35 34" fill="none" xmlns="http://www.w3.org/2000/svg">
<path d="M1.66016 32.601C1.66016 30.3561 1.66016 29.2344 2.35822 28.5395C3.0547 27.8415 4.17636 27.8415 6.41969 27.8415C8.66461 27.8415 9.78627 27.8415 10.4812 28.5395C11.1792 29.236 11.1792 30.3577 11.1792 32.601V18.3224C11.1792 16.0775 11.1792 14.9558 11.8773 14.2609C12.5738 13.5629 13.6954 13.5629 15.9388 13.5629H19.1118C21.3567 13.5629 22.4784 13.5629 23.1733 14.2609C23.8713 14.9574 23.8713 16.0791 23.8713 18.3224V32.601V27.8415C23.8713 25.5966 23.8713 24.4749 24.5694 23.78C25.2659 23.0819 26.3875 23.0819 28.6309 23.0819C30.8758 23.0819 31.9974 23.0819 32.6923 23.78C33.3904 24.4765 33.3904 25.5982 33.3904 27.8415V32.601" stroke="#F4F2F2" stroke-width="1.63184" stroke-linecap="round"/>
<path d="M16.1704 2.49483C16.7732 1.41124 17.0747 0.871826 17.5252 0.871826C17.9758 0.871826 18.2772 1.41124 18.8801 2.49483L19.0356 2.77405C19.2069 3.08184 19.2926 3.23414 19.4259 3.33568C19.5607 3.43722 19.7273 3.47529 20.0605 3.54986L20.3619 3.61967C21.5328 3.88461 22.1182 4.01629 22.2578 4.46369C22.3974 4.91267 21.9976 5.37911 21.1996 6.31198L20.9934 6.55313C20.7665 6.81807 20.6523 6.94976 20.6015 7.11475C20.5507 7.27975 20.5682 7.45585 20.6015 7.80965L20.6332 8.13171C20.7538 9.37712 20.8141 10.0006 20.4508 10.2767C20.0859 10.5543 19.5369 10.3005 18.4407 9.79596L18.1583 9.66587C17.8457 9.52308 17.6902 9.4501 17.5252 9.4501C17.3602 9.4501 17.2048 9.52308 16.8922 9.66587L16.6098 9.79596C15.5135 10.3005 14.9646 10.5543 14.5997 10.2767C14.2348 10.0006 14.2967 9.37712 14.4173 8.13171L14.449 7.80965C14.4823 7.45585 14.4998 7.27975 14.449 7.11475C14.3982 6.95134 14.284 6.81807 14.0571 6.55313L13.8509 6.31198C13.0529 5.37911 12.6531 4.91267 12.7927 4.46369C12.9323 4.01629 13.5177 3.88461 14.6886 3.61967L14.99 3.54986C15.3232 3.47529 15.4897 3.4388 15.6246 3.33568C15.7579 3.23414 15.8435 3.08184 16.0149 2.77405L16.1704 2.49483Z" stroke="#F4F2F2" stroke-width="1.63184"/>
</svg>
