<svg width="15" height="15" viewBox="0 0 15 15" fill="none" xmlns="http://www.w3.org/2000/svg">
<path d="M1.84168 14.3901C1.84168 14.3901 0.685791 14.3901 0.685791 13.2342C0.685791 12.0783 1.84168 8.61065 7.62112 8.61065C13.4006 8.61065 14.5564 12.0783 14.5564 13.2342C14.5564 14.3901 13.4006 14.3901 13.4006 14.3901H1.84168ZM7.62112 7.45477C8.5408 7.45477 9.42281 7.08942 10.0731 6.43911C10.7234 5.7888 11.0888 4.90678 11.0888 3.9871C11.0888 3.06742 10.7234 2.18541 10.0731 1.53509C9.42281 0.884782 8.5408 0.51944 7.62112 0.51944C6.70144 0.51944 5.81942 0.884782 5.16911 1.53509C4.5188 2.18541 4.15345 3.06742 4.15345 3.9871C4.15345 4.90678 4.5188 5.7888 5.16911 6.43911C5.81942 7.08942 6.70144 7.45477 7.62112 7.45477Z" fill="#CACACA"/>
</svg>
