<svg width="27" height="16" viewBox="0 0 27 16" fill="none" xmlns="http://www.w3.org/2000/svg">
<path fill-rule="evenodd" clip-rule="evenodd" d="M9.47223 2.47855C9.61252 2.34783 9.72504 2.19019 9.80308 2.01504C9.88112 1.83989 9.92308 1.65082 9.92646 1.4591C9.92985 1.26738 9.89458 1.07694 9.82276 0.899148C9.75095 0.721354 9.64406 0.559848 9.50847 0.42426C9.37289 0.288672 9.21138 0.181783 9.03359 0.109969C8.85579 0.0381555 8.66536 0.00288768 8.47364 0.00626941C8.28192 0.00965209 8.09284 0.0516166 7.91769 0.129658C7.74254 0.207699 7.58491 0.320219 7.45419 0.460505L1.26488 6.6479L0.255859 7.65693L1.26488 8.66595L7.45228 14.8533C7.72146 15.1136 8.08207 15.2577 8.45645 15.2546C8.83084 15.2515 9.18904 15.1015 9.4539 14.8369C9.71876 14.5723 9.8691 14.2142 9.87253 13.8399C9.87595 13.4655 9.7322 13.1047 9.47223 12.8353L5.72171 9.08479H25.4814C25.8601 9.08479 26.2233 8.93435 26.4911 8.66658C26.7588 8.3988 26.9093 8.03562 26.9093 7.65693C26.9093 7.27823 26.7588 6.91505 26.4911 6.64728C26.2233 6.3795 25.8601 6.22906 25.4814 6.22906H5.72171L9.47223 2.47855Z" fill="#CACACA"/>
</svg>
